<?xml version="1.0" encoding="UTF-8"?>
<svg version="1.1" viewBox="0 0 1024 1024" width="1280" height="1280" xmlns="http://www.w3.org/2000/svg">
<path transform="translate(478,313)" d="m0 0h73l34 2 42 6 32 6 24 6 29 9 20 7 26 11 25 12 17 10 12 8 16 12 11 10 8 7 9 9 11 14 7 10 11 21 3 11 1 25v22l-2 15-7 17-9 16-11 14-9 10-8 8-11 9-17 13-28 17-30 15-31 12-37 12-24 6-44 8-29 4-25 2-63 1h-42l-28-2-46-7-25-5-17-4-27-8-32-11-28-12-16-8-25-14-23-16-11-9-13-12-9-10-11-15-9-16-4-8-2-8-1-12v-24l1-21 2-13 8-18 10-16 7-9 11-12 13-13 12-9 14-10 24-14 16-8 17-8 26-10 28-9 29-8 27-6 46-8 29-3z" fill="#6A7EB2"/>
<path transform="translate(468,361)" d="m0 0h25l21 1 5 5-1 13-7 35h30l26 2 17 5 10 6 8 10 5 11 3 11 2 5v8l-9 48-12 60-7 37-2 9 51-1 4-1-1 5-6 2h-43l-7-3-1-1v-12l5-26 3-12-10 1h-39l-9-3-1-1v-8l11-56 5-25 1-8v-11l-6-2h-37l-7 34-9 46-5 24-3 8-2 1-9 1h-35l-9-3-2-1v-8l4-21 3-6-5 5-4 5-14 11-13 8-13 5-13 3-10 1-48 1-4 20-5 26-3 5-8 2h-37l-7-1-4-3v-11l6-32 10-51 9-47 11-56 4-15 6-1h65l33 1 14 2 16 6 11 7 7 7 7 11 3 7 4-16 7-37 6-31 4-10z" fill="#040405"/>
<path transform="translate(623,415)" d="m0 0h70l28 1 15 2 15 5 11 7 11 11 6 10 5 17 1 7v11l-2 15-4 14-7 16-10 14-12 12-16 11-13 5-17 4-8 1-35 1-14 1-6 29-3 15h-51v-9l8-40 14-71 7-38 6-31 2-12h-2l-5 25-2 7-2 1-1-3 3-23 3-12 1-2z" fill="#020203"/>
<path transform="translate(478,313)" d="m0 0h73l34 2 42 6 32 6 24 6 29 9 20 7 26 11 25 12 17 10 12 8 16 12 11 10 8 7 9 9 11 14 7 10 11 21 3 11 1 25v22l-2 15-7 17-9 16-11 14-9 10-8 8-11 9-17 13-28 17-30 15-31 12-37 12-24 6-44 8-29 4-25 2-63 1h-42l-28-2-46-7-25-5-17-4-27-8-32-11-28-12-16-8-25-14-23-16-11-9-13-12-9-10-11-15-9-16-4-8-2-8-1-12v-24l1-21 2-13 8-18 10-16 7-9 11-12 13-13 12-9 14-10 24-14 16-8 17-8 26-10 28-9 29-8 27-6 46-8 29-3zm8 15-33 2-36 4-26 4-34 7-40 11-31 11-29 13-22 12-17 11-20 15-8 7-7 7-9 11-7 10-8 13-6 13-4 15-1 9v17l3 18 5 13 8 16 9 12 9 10 7 8 12 11 18 13 15 10 12 7 28 13 23 9 33 11 30 8 35 7 35 5 32 3 18 1h58l37-2 41-5 34-6 38-9 26-8 29-11 18-8 16-8 16-9 22-15 15-13 9-8 7-8 11-14 8-14 6-13 4-15 1-6v-23l-4-17-6-15-8-14-14-18-15-15-14-11-19-13-19-11-26-13-31-12-31-10-32-8-30-6-37-5-35-3-15-1z" fill="#7283B2"/>
<path transform="translate(286,422)" d="m0 0h63l36 1 14 2 12 5 11 8 8 9 6 11 3 9v28l-4 18-5 10-2 5-2 2-2 5-17 17-5 4h-3v2l-8 5-7 2v2l-9 2-10 1v2l-63 1-5 28-5 22-6 2-40-1 1-10 4-22 6-30 7-37 5-23 5-26 4-22 6-30z" fill="#020202"/>
<path transform="translate(475,325)" d="m0 0h75l26 2 36 4 30 5 28 6 25 7 36 12 13 5 28 12 7 2 7 1 6 2-1-2-2-1 4-2 18 11 17 13 11 10 8 7 9 9 11 14 7 10 11 21 3 11 1 25v22l-2 15-7 17-9 16-11 14-9 10-8 8-11 9-17 13-28 17-30 15-31 12-37 12-24 6-44 8-29 4h-15l-1-5h3l-1-3-2-1h-16l-18 1h-56l-35-2-27-3-32-5-30-6-31-8-26-8-20-7-28-12-22-12-16-10-17-12-10-9-18-18-11-14-10-19-6-18-2-9-1-11v-10l2-16 5-17 8-15 12-17 3-4h2l2-4 14-14h2v-2l10-8 17-12 13-8 26-14 16-7h2v-2l15-6 30-10 25-7 37-8 16-3 21-2 37-4zm11 3-33 2-36 4-26 4-34 7-40 11-31 11-29 13-22 12-17 11-20 15-8 7-7 7-9 11-7 10-8 13-6 13-4 15-1 9v17l3 18 5 13 8 16 9 12 9 10 7 8 12 11 18 13 15 10 12 7 28 13 23 9 33 11 30 8 35 7 35 5 32 3 18 1h58l37-2 41-5 34-6 38-9 26-8 29-11 18-8 16-8 16-9 22-15 15-13 9-8 7-8 11-14 8-14 6-13 4-15 1-6v-23l-4-17-6-15-8-14-14-18-15-15-14-11-19-13-19-11-26-13-31-12-31-10-32-8-30-6-37-5-35-3-15-1z" fill="#040405"/>
<path transform="translate(148,479)" d="m0 0 1 3-3 13-1 11v10l2 16 5 17 9 19 9 13 14 15 15 15 20 14 16 10 16 9 24 11 16 6 33 11 30 8 33 7 16 3 38 5 24 2 21 1h56l23-1h11l4 3-1 2h-3v3l3 1 1 2-13 1-63 1h-42l-28-2-46-7-25-5-17-4-27-8-32-11-4-4-11-4-5-4-7-3-3-2h-2l-3-3-4-1-2-2-8-4-6-4-4-1-4-3v-2h-5v-2l-4-1v-2h-3l-1-3-8-3-4-5-4-3v-2l-4-2v-2l-4-1-3-4v-2l-4-2-8-8-6-7-3-3-1-4-4-8-5-9-1-5-2-1-1-7 1-2h-2l-3-8-3-12 1-4-2-1 1-1v-22h2v-7l3-13z" fill="#595A64"/>
<path transform="translate(478,313)" d="m0 0h73l34 2 42 6 32 6 24 6 29 9 20 7 26 11 25 12 9 5-1 3 2 3-2 1-8-3-6-1-9-3-17-7-11-5-29-10-26-8-32-8-22-4-35-5-28-3-18-1h-75l-36 3-24 3h-7v-1l27-4-2-2 3-3 11-3v-2l12-2z" fill="#6C7EAF"/>
<path transform="translate(332,462)" d="m0 0h29l14 3 6 4 3 9v10l-2 11-5 13-6 8-7 6-13 4-16 2h-18l1-11 10-49 2-9z" fill="#697CAF"/>
<path transform="translate(672,462)" d="m0 0h31l13 2 7 5 2 6v17l-3 12-6 12-5 5-9 6-11 3-32 3-1-3 9-47 4-20z" fill="#697CAF"/>
<path transform="translate(455,314)" d="m0 0h13v1l-21 2 1 3-12 3-2 2 2 3-22 3-34 6-36 8-28 8-29 10-19 8-16 7-12 6-2-2-7 1-6 4-5 1-5 2h-3l4-4 16-9 18-10 25-11 24-9 29-9 25-7 27-6 46-8z" fill="#FCFCFC"/>
<path transform="translate(670,455)" d="m0 0h24l19 2 10 4 3 2v2l3 1 3 6v24l-4 11-5 10-6 8-7 6-10 4-14 2-19 2h-16v-8l2-5 3-19 2-7 3-20 2-9 2-13zm2 7-3 9-10 55-1 6 2 1 31-3 13-4 10-7 6-10 3-7 2-10v-17l-3-7-6-4-13-2z" fill="#626E91"/>
<path transform="translate(335,455)" d="m0 0 27 1 10 2 12 5 3 5v2h2l2 6v15l-5 16-7 14-7 7-5 2v2l-13 4-18 2-21 1-6-2v-6l2-8 7-36 6-29 2-2zm-3 7-3 3-6 32-6 29v6h18l21-3 10-4 8-8 7-14 2-7 1-8v-10l-3-9-6-4-14-3z" fill="#7E8AAA"/>
<path transform="translate(622,329)" d="m0 0 12 2 6-1 18 3 10 2 1 1h6l9 2 5-1v2l7 1 7-1 29 10 26 11 25 12 9 5-1 3 2 3-2 1-8-3-6-1-9-3-17-7-11-5-29-10-26-8-32-8-22-4-19-3v-1h10z" fill="#565762"/>
<path transform="translate(471,363)" d="m0 0h36l7 2 1 1v14l-4 13-2 11h-1l1-12 4-24-45 1-4 16-3 17-6 29-5 26-7 30-10 53-6 32h46l1-5h2v-7l5-24 3-14 3-16h1l-1 12-9 45-2 11-4 2h-39l-9-2-1-3 4-16 2-6 2-10 1-11h-3l-2 5-8 10-12 12-14 9-7 4-4-1h2v-2l12-6 3-1v-2l5-3 10-9 10-10 2-5 2-2 3-7 4-11 4-20 1-19 4-6 18-89 4-9 1-2z" fill="#F8F9FA"/>
<path transform="translate(283,420)" d="m0 0h3l-4 18-3 16-5 28-6 28-14 72-7 38-1 4h41l4-1 6-28 4-22 1-1h63l-1 2-5 1-19 1-35 1-7 36-3 13-1 1-16 1h-35l-1-2 6-35 18-93 9-44 5-28z" fill="#637197"/>
<path transform="translate(328,460)" d="m0 0h40l10 3 7 4 3 9v13l-4 16-8 15-7 7-4 1v2l-6 2-34 4h-12l-1-3 3-11 4-20 3-16 4-19zm4 2-3 3-6 32-6 29v6h18l21-3 10-4 8-8 7-14 2-7 1-8v-10l-3-9-6-4-14-3z" fill="#020202"/>
<path transform="translate(672,459)" d="m0 0h24l14 1 10 3 6 5 2 5v20l-3 12-4 9-7 10-9 6-16 3-31 4-3-2 2-17 2-9 1-11 2-5 1-11h2l1-9 2-12zm0 3-3 9-10 55-1 6 2 1 31-3 13-4 10-7 6-10 3-7 2-10v-17l-3-7-6-4-13-2z" fill="#030303"/>
<path transform="translate(622,422)" d="m0 0 3 1-3 19-5 24-12 63-10 51-7 35v11h-5v-8l12-63 13-65 12-64z" fill="#FCFCFC"/>
<path transform="translate(306,419)" d="m0 0h72l20 2 11 4 10 6 9 7 9 13 3 5v11h-2l-5-13-7-11-10-9-14-7-7-2-10-1-37-1h-61l1-3 1 1z" fill="#565760"/>
<path transform="translate(471,363)" d="m0 0h36l7 2 1 1v14l-4 13-2 11h-1l1-12 4-24-45 1-4 16-3 17-6 29-5 26-3 10-4-1 4-16 15-75 4-9 1-2z" fill="#697494"/>
<path transform="translate(507,405)" d="m0 0 1 3v7l-1 4 2-1h25l29 2 10 2 10 3 11 8 3 4v3h2l4 8v23l-2 13h-1l-1-34-5-10-5-6-10-6-9-3-11-1-47-1-8-1 1-10z" fill="#6C7797"/>
<path transform="translate(599,484)" d="m0 0 1 3-1 12-3 11-2 12-3 17-2 7-1 8-1 1-1 12-2 7 1 2h-50l-4-1 1-9 3-16h2l1-12 2-7h1v7l-5 24-1 9h46l3-16 2-9 5-27 3-14 2-9 1-9z" fill="#6D7FB2"/>
<path transform="translate(468,361)" d="m0 0h25l14 1v1l-40 1-2 5-4 16-16 79-4 6-1 19h-1v-22l1-10 2-1 4-16 7-37 6-31 4-10z" fill="#060606"/>
<path transform="translate(627,419)" d="m0 0h80l24 1 9 2 8 3-1 3-10-3-24-2h-88l-3-2z" fill="#55565F"/>
<path transform="translate(302,572)" d="m0 0h63l-1 2-5 1-19 1-35 1-7 36-3 9-2 4h-6v-2l4-1 6-28 4-22z" fill="#606A88"/>
<path transform="translate(324,458)" d="m0 0 1 2h3l-6 30-7 36-2 9h12l23-3h8v1l-6 1 4 2-18 2-21 1-6-2v-6l2-8 7-36z" fill="#616C8E"/>
<path transform="translate(670,455)" d="m0 0h24l13 1v2l7 1v1h-42l-3 1-4 21h-2v11l-2 5-2 15-3 18h-2v4h-2l1-9 3-19 2-7 3-20 2-9 2-13z" fill="#647197"/>
<path transform="translate(763,534)" d="m0 0v3l-12 13-4 5-16 10-12 6-18 4-10 1h-46l-1-4 57-1 19-4 16-8 11-8 8-9h2l2-4z" fill="#636F92"/>
<path transform="translate(487,506)" d="m0 0h1l-1 12-9 45-2 11-4 2h-39l-9-2-1-3 4-16h1v13l-1 4h46l1-5h2v-7l5-24 3-14z" fill="#9CA6C1"/>
<path transform="translate(497,456)" d="m0 0h27l15 1 8 3 4 3v29h-4l1-17v-11l-2-2-18-2h-29l-2 11h-2l-1 11-2 4 1-18z" fill="#B1B9D0"/>
<path transform="translate(384,421)" d="m0 0h14l11 4 10 6 9 7 9 13 3 5v11h-2l-5-13-7-11-10-9-14-7-7-2-10-1-2-2z" fill="#575A67"/>
<path transform="translate(507,405)" d="m0 0 1 3v7l-1 4 2-1h25l29 2-1 2h-6l-1 1h-43l-8-1 1-10z" fill="#656770"/>
<path transform="translate(283,420)" d="m0 0h3l-4 18-3 16-5 28-2 8h-1l-1-12 11-55z" fill="#606B8B"/>
<path transform="translate(707,528)" d="m0 0 2 1 1 2-10 4-14 2-19 2h-16v-8l1 4h2l1-4 2 5 25-3 20-3z" fill="#555762"/>
<path transform="translate(335,455)" d="m0 0 27 1 10 2 8 3-4 2-8-2-43-1 1-4z" fill="#647299"/>
<path transform="translate(507,364)" d="m0 0 7 1 1 1v14l-4 13-2 11h-1l1-12 4-24h-45v-1l9-1v-1z" fill="#575966"/>
<path transform="translate(471,363)" d="m0 0h36v2l-12 1v1h-27l-4 18-1 6-3-4 2-12 4-9 1-2z" fill="#657298"/>
<path transform="translate(294,622)" d="m0 0 1 4-1 1-16 1h-35v-3l3 1v-2h40l7 2z" fill="#5A5F71"/>
<path transform="translate(582,620)" d="m0 0h1v6l4-2 50-1 1 4-2-1-3 1h-51z" fill="#6777A5"/>
<path transform="translate(663,477)" d="m0 0h1l-1 16-2 5-2 15-3 18h-2v4h-2l1-9 3-19 2-7 3-20z" fill="#717A94"/>
<path transform="translate(311,523)" d="m0 0h1l1 12h12l23-3h8v1l-6 1 4 2-18 2-21 1-6-2v-6z" fill="#565760"/>
<path transform="translate(861,461)" d="m0 0 3 3 7 16 4 15 1 5v23l-4 18-5 12-1-3 5-14 2-10v-27l-5-20-5-12z" fill="#565760"/>
<path transform="translate(270,482)" d="m0 0h1v14l-5 26-2 8h-2l-1 4v-10l8-41z" fill="#6A7492"/>
<path transform="translate(763,534)" d="m0 0v3l-12 13-4 5-16 10-12 6-14 3-3-1-1-2 19-4 16-8 11-8 8-9h2l2-4z" fill="#565760"/>
<path transform="translate(148,479)" d="m0 0 1 3-3 13-1 11v10l2 16 4 14-1 3-3-3-4-12-1-8 1-2-2-1 1-1v-22h2v-7l3-13z" fill="#565760"/>
<path transform="translate(526,457)" d="m0 0h13l8 3 4 3v29h-4l1-17v-11l-2-2-18-2z" fill="#A4ACC2"/>
<path transform="translate(319,572)" d="m0 0h46l-1 2-5 1h-45l4-2z" fill="#949DB6"/>
<path transform="translate(599,484)" d="m0 0 1 3-1 12-3 11-2 12-3 17-2 5h-1l1-15 4-17 3-16 1-9z" fill="#A9AFC1"/>
<path transform="translate(594,437)" d="m0 0h3v3h2l4 8v23l-2 13h-1l-1-34z" fill="#959EB6"/>
<path transform="translate(452,428)" d="m0 0h2v9l-5 23-2 7-4-1 4-16 4-20z" fill="#6C799D"/>
<path transform="translate(425,530)" d="m0 0 2 3-8 10-12 12-14 9-7 4-4-1h2v-2l12-6 3-1v-2l5-3 10-9 10-10z" fill="#D0D5E2"/>
<path transform="translate(727,500)" d="m0 0h1v7l-5 10-6 8-5 5-4-1 4-5h2l2-4 6-9 4-9z" fill="#6C7694"/>
<path transform="translate(260,529)" d="m0 0 3 1-1 12-5 24-3-2 1-9z" fill="#5F6986"/>
<path transform="translate(384,421)" d="m0 0h14l11 4 7 4-1 3-4-1-12-5-14-2-2-2z" fill="#595E6F"/>
<path transform="translate(298,596)" d="m0 0h1v12l-3 13-3 5h-6v-2l4-1 5-22z" fill="#626F93"/>
<path transform="translate(540,531)" d="m0 0h1v7l-5 24-1 9-3 3 3 1h-4l1-9 3-16h2l1-12z" fill="#B5B9C7"/>
<path transform="translate(568,326)" d="m0 0 35 1 7 1v2l2 1-16-1-28-3z" fill="#565760"/>
<path transform="translate(283,420)" d="m0 0h3l-6 27-3-2 2-12 2-10z" fill="#5F6986"/>
<path transform="translate(378,462)" d="m0 0 6 1 3 5v2h2l2 6v15h-2l-1-13-4-11-6-3z" fill="#7A85A2"/>
<path transform="translate(255,563)" d="m0 0h1v8l-3 15-3 4v-9l3-16z" fill="#6C7590"/>
<path transform="translate(667,456)" d="m0 0 2 1-1 2v8l-3 15-3-4 3-20z" fill="#7E88A3"/>
<path transform="translate(726,420)" d="m0 0 12 1 10 4-1 3-10-3-10-1-2-1z" fill="#585B68"/>
<path transform="translate(514,367)" d="m0 0h1v13l-4 13-2 11h-1l1-12 4-24z" fill="#A8AEC1"/>
<path transform="translate(587,540)" d="m0 0 2 4-1 10-1 1-1 12-2 6h-3l3-18 2-9z" fill="#8C93A9"/>
<path transform="translate(727,564)" d="m0 0m-3 1h3v2l-8 4-14 3-3-1-1-2 19-4z" fill="#5F6475"/>
<path transform="translate(324,458)" d="m0 0 1 2h3l-2 10-2 12h-1l-1-5h-1l1-9z" fill="#616D8E"/>
<path transform="translate(663,477)" d="m0 0h1l-1 16-3 9-1 5h-1l1-15 2-12z" fill="#ADB2C2"/>
<path transform="translate(278,443)" d="m0 0h1v11l-2 10-3 4v-10l3-13z" fill="#7782A1"/>
<path transform="translate(466,366)" d="m0 0 2 3-4 16-1 6-3-4 2-12z" fill="#6E7997"/>
<path transform="translate(300,578)" d="m0 0h1v5h2l-1 10-2 10-3-3 1-10z" fill="#616A85"/>
<path transform="translate(575,573)" d="m0 0h8l2 3h-50v-1l40-1z" fill="#565760"/>
<path transform="translate(388,478)" d="m0 0h1l1 16-4 13h-3l4-18z" fill="#626980"/>
<path transform="translate(633,623)" d="m0 0 5 1-1 3-4-1-46-1v-1z" fill="#565760"/>
<path transform="translate(707,528)" d="m0 0 2 1 1 2-10 4h-10l2-1v-2l13-3z" fill="#5C6278"/>
<path transform="translate(496,458)" d="m0 0 2 4-1 9h-2l-1 11-2 4 1-18z" fill="#B1B6C5"/>
<path transform="translate(609,452)" d="m0 0 6 3-1 8-1 5-2-3-3-7z" fill="#454750"/>
<path transform="translate(544,503)" d="m0 0h2v12l-4 16h-1v-10l2-9z" fill="#B5BACA"/>
<path transform="translate(315,511)" d="m0 0h1v11l-2 7h-2v-12l2-5z" fill="#687598"/>
<path transform="translate(447,450)" d="m0 0h4l-3 14-2 3-3-1z" fill="#687497"/>
<path transform="translate(384,506)" d="m0 0 1 4-6 11h-3l1-5 5-9z" fill="#818CA9"/>
<path transform="translate(461,386)" d="m0 0h1v12l-1 4h-2l-1 3v-10z" fill="#8D97B4"/>
<path transform="translate(526,457)" d="m0 0h13l7 2-2 2-16-1z" fill="#616D8E"/>
<path transform="translate(585,428)" d="m0 0 5 2 5 5 1 4-1 2-6-7-6-4z" fill="#626D90"/>
<path transform="translate(322,476)" d="m0 0h1v10l-2 8h-1v-6l-2 2 2-13z" fill="#606A88"/>
<path transform="translate(427,555)" d="m0 0h1v13l-1 6-4-1z" fill="#747D96"/>
<path transform="translate(256,550)" d="m0 0 3 3-1 9-2 4-2-2 1-9z" fill="#5F6986"/>
<path transform="translate(264,518)" d="m0 0h1v7l-1 5h-2l-1 4v-10l1-5z" fill="#6A7799"/>
<path transform="translate(599,484)" d="m0 0 1 3-1 12-2 5h-1l1-17z" fill="#C2C6D0"/>
<path transform="translate(728,474)" d="m0 0h1v23l1 3-2 3-2-1z" fill="#565760"/>
<path transform="translate(435,455)" d="m0 0h3l2 1v11h-2l-3-9z" fill="#7885A7"/>
<path transform="translate(692,336)" d="m0 0 8 2v2l-9 1-4-3z" fill="#6C7EAD"/>
<path transform="translate(298,596)" d="m0 0h1v12l-1 5-3-3 1-9z" fill="#757E99"/>
<path transform="translate(375,520)" d="m0 0 3 2-9 8-4-2 6-4z" fill="#606B8A"/>
<path transform="translate(707,457)" d="m0 0 9 1 7 3-3 2-10-2 1-2z" fill="#585C6B"/>
<path transform="translate(364,457)" d="m0 0 8 1 8 3-4 2-8-2v-2z" fill="#666E85"/>
<path transform="translate(223,382)" d="m0 0m-1 1 1 2 4 1-7 2-5 2h-3l4-4z" fill="#F4F5F8"/>
<path transform="translate(375,568)" d="m0 0h7l-3 2-8 2h-6v-2z" fill="#B5BAC7"/>
<path transform="translate(556,421)" d="m0 0h15l-4 3h-8l-4-2z" fill="#647198"/>
<path transform="translate(352,572)" d="m0 0h13l-1 2-10 1-4-2z" fill="#A5ACBE"/>
<path transform="translate(474,567)" d="m0 0 3 1-1 6-1 1h-5v-2l-2-1h5z" fill="#6A7592"/>
<path transform="translate(259,542)" d="m0 0h1v9l-3 3v-10z" fill="#6F7CA1"/>
<path transform="translate(655,518)" d="m0 0h1l-1 13-1 4h-2l1-9z" fill="#FDFDFD"/>
<path transform="translate(466,366)" d="m0 0 2 3-2 8h-3l-1-2z" fill="#5E6782"/>
<path transform="translate(273,665)" d="m0 0 5 1 8 4-1 2-12-5z" fill="#7083B6"/>
<path transform="translate(718,461)" d="m0 0 7 1 3 6-4-1-4-3v-2z" fill="#9DA3B5"/>
<path transform="translate(324,458)" d="m0 0 1 2h3l-2 10-1-4-2 1z" fill="#595E6F"/>
<path transform="translate(283,420)" d="m0 0h3l-2 10-2-3-1 5h-1l1-9z" fill="#565760"/>
<path transform="translate(239,619)" d="m0 0h1l1 9 3 2 7 1v1h-10l-2-3z" fill="#565760"/>
<path transform="translate(727,500)" d="m0 0h1v7l-1 3h-3l1-7z" fill="#637094"/>
<path transform="translate(249,586)" d="m0 0 3 2-1 10-3-2z" fill="#5D647D"/>
<path transform="translate(255,563)" d="m0 0h1v8l-3 3v-9z" fill="#6A79A0"/>
<path transform="translate(566,422)" d="m0 0h7l4 2-1 2-9-2z" fill="#7C89AB"/>
</svg>
